<svg viewBox="0 0 1466 825" version="1.1" xmlns="http://www.w3.org/2000/svg">
<defs>
<clipPath id="c0_62"><path d="M-.2 825.3V-.2H1467V825.3Z"/></clipPath>
<clipPath id="c1_62"><path d="M27.7 740.1V285.9h633V740.1Z"/></clipPath>
<style>
.g0_62{fill:#DEEBF7;}
.g1_62{fill:none;stroke:#200CB4;stroke-width:1.145;stroke-linejoin:round;}
.g2_62{fill:#E2F0D9;}
.g3_62{fill:none;stroke:#F00;stroke-width:1.145;stroke-linejoin:round;}
.g4_62{fill:#00C;}
.g5_62{fill:none;stroke:#2F528F;stroke-width:1.527;stroke-miterlimit:8;}
</style>
</defs>
<g clip-path="url(#c0_62)">
<image preserveAspectRatio="none" x="-14" y="0" width="1495" height="825" href="img/1.jpg"/>
<image preserveAspectRatio="none" x="399" y="36" width="752" height="94" href="img/2.png"/>
<image preserveAspectRatio="none" x="314" y="36" width="141" height="94" href="img/3.png"/>
</g>
<path fill-rule="evenodd" d="M797.5 249.5h599V179.1h-599v70.4Z" class="g0_62"/>
<path d="M797.5 249.5h599V179.1h-599v70.4Z" class="g1_62"/>
<g clip-path="url(#c0_62)">
<image preserveAspectRatio="none" x="1322" y="169" width="97" height="108" href="img/4.png"/>
<image preserveAspectRatio="none" x="842" y="169" width="544" height="108" href="img/5.png"/>
<image preserveAspectRatio="none" x="812" y="169" width="94" height="108" href="img/6.png"/>
<image preserveAspectRatio="none" x="796" y="169" width="81" height="108" href="img/7.png"/>
</g>
<path fill-rule="evenodd" d="M678.3 739.8h715V286.2h-715V739.8Z" class="g2_62"/>
<path d="M678.3 739.8h715V286.2h-715V739.8Z" class="g3_62"/>
<path fill-rule="evenodd" d="M1325.7 705.5c0-18.3 14.8-33 33-33c18.2 0 33 14.7 33 33c0 18.2-14.8 33-33 33c-18.2 0-33-14.8-33-33Z" class="g4_62"/>
<path d="M1325.7 705.5c0-18.3 14.8-33 33-33c18.2 0 33 14.7 33 33c0 18.2-14.8 33-33 33c-18.2 0-33-14.8-33-33Z" class="g5_62"/>
<image clip-path="url(#c1_62)" preserveAspectRatio="none" x="28" y="286" width="632" height="454" href="img/8.jpg"/>
</svg>