<svg viewBox="0 0 1466 825" version="1.1" xmlns="http://www.w3.org/2000/svg">
<defs>
<clipPath id="c0_82"><path d="M-.2 825.3V-.2H1467V825.3Z"/></clipPath>
<clipPath id="c1_82"><path d="M148.2 511.8V331H1292.8V511.8Z"/></clipPath>
<style>
.g0_82{fill:#DEEBF7;}
.g1_82{fill:none;stroke:#200CB4;stroke-width:1.145;stroke-linejoin:round;}
.g2_82{fill:#FFF2CC;}
.g3_82{fill:none;stroke:#00C;stroke-width:1.145;stroke-linejoin:round;}
.g4_82{fill:#00C;}
.g5_82{fill:none;stroke:#2F528F;stroke-width:1.527;stroke-miterlimit:8;}
.g6_82{fill:none;stroke:#F00;stroke-width:1.145;stroke-linejoin:round;}
.g7_82{fill:#F00;}
</style>
</defs>
<g clip-path="url(#c0_82)">
<image preserveAspectRatio="none" x="-14" y="0" width="1495" height="825" href="img/1.jpg"/>
<image preserveAspectRatio="none" x="399" y="36" width="752" height="94" href="img/2.png"/>
<image preserveAspectRatio="none" x="314" y="36" width="141" height="94" href="img/3.png"/>
</g>
<path fill-rule="evenodd" d="M797.5 249.5h599V179.1h-599v70.4Z" class="g0_82"/>
<path d="M797.5 249.5h599V179.1h-599v70.4Z" class="g1_82"/>
<g clip-path="url(#c0_82)">
<image preserveAspectRatio="none" x="1322" y="169" width="97" height="108" href="img/4.png"/>
<image preserveAspectRatio="none" x="842" y="169" width="544" height="108" href="img/5.png"/>
<image preserveAspectRatio="none" x="812" y="169" width="94" height="108" href="img/6.png"/>
<image preserveAspectRatio="none" x="796" y="169" width="81" height="108" href="img/7.png"/>
</g>
<path fill-rule="evenodd" d="M73.3 784.3h1320v-515H73.3v515Z" class="g2_82"/>
<path d="M73.3 784.3h1320v-515H73.3v515Z" class="g3_82"/>
<path fill-rule="evenodd" d="M654.5 688.4c0-18.2 14.8-33 33-33c18.2 0 33 14.8 33 33c0 18.2-14.8 33-33 33c-18.2 0-33-14.8-33-33Z" class="g4_82"/>
<path d="M654.5 688.4c0-18.2 14.8-33 33-33c18.2 0 33 14.8 33 33c0 18.2-14.8 33-33 33c-18.2 0-33-14.8-33-33Z" class="g5_82"/>
<image clip-path="url(#c1_82)" preserveAspectRatio="none" x="148" y="331" width="1144" height="181" href="img/8.jpg"/>
<path fill-rule="evenodd" d="M1042.8 646.1h328V575.9h-328v70.2Z" class="g0_82"/>
<path d="M1042.8 646.1h328V575.9h-328v70.2Z" class="g6_82"/>
<path fill-rule="evenodd" d="M100.1 644.4h328V574h-328v70.4Z" class="g0_82"/>
<path d="M100.1 644.4h328V574h-328v70.4Z" class="g6_82"/>
<path fill-rule="evenodd" d="M571.5 642H899.4V571.6H571.5V642Z" class="g0_82"/>
<path d="M571.5 642H899.4V571.6H571.5V642Z" class="g6_82"/>
<path d="M1021.5 605.2H938.4v6.9h83.1Zm-79.6-6.8l-20.6 10.3L941.9 619Z" class="g7_82"/>
<path d="M551.3 602.7H468.2v6.8h83.1Zm-79.7-6.9L451 606.1l20.6 10.3Z" class="g7_82"/>
</svg>