<svg viewBox="0 0 1466 825" version="1.1" xmlns="http://www.w3.org/2000/svg">
<defs>
<clipPath id="c0_23"><path d="M-.2 825.3V-.2H1467V825.3Z"/></clipPath>
<clipPath id="c1_23"><path d="M36.3 705.2V232.7H415V705.2Z"/></clipPath>
<style>
.g0_23{fill:#DEEBF7;}
.g1_23{fill:none;stroke:#200CB4;stroke-width:1.145;stroke-linejoin:round;}
.g2_23{fill:#FFF2CC;}
.g3_23{fill:none;stroke:#F00;stroke-width:1.145;stroke-linejoin:round;}
.g4_23{fill:#F00;}
.g5_23{fill:#00C;}
.g6_23{fill:none;stroke:#2F528F;stroke-width:1.527;stroke-miterlimit:8;}
</style>
</defs>
<g clip-path="url(#c0_23)">
<image preserveAspectRatio="none" x="-14" y="0" width="1495" height="825" href="img/1.jpg"/>
<image preserveAspectRatio="none" x="399" y="36" width="752" height="94" href="img/2.png"/>
<image preserveAspectRatio="none" x="314" y="36" width="141" height="94" href="img/3.png"/>
</g>
<path fill-rule="evenodd" d="M797.5 249.5h599V179.1h-599v70.4Z" class="g0_23"/>
<path d="M797.5 249.5h599V179.1h-599v70.4Z" class="g1_23"/>
<g clip-path="url(#c0_23)">
<image preserveAspectRatio="none" x="1322" y="169" width="97" height="108" href="img/4.png"/>
<image preserveAspectRatio="none" x="842" y="169" width="544" height="108" href="img/5.png"/>
<image preserveAspectRatio="none" x="812" y="169" width="94" height="108" href="img/6.png"/>
<image preserveAspectRatio="none" x="796" y="169" width="81" height="108" href="img/7.png"/>
</g>
<path fill-rule="evenodd" d="M548.2 691h851.9V324.3H548.2V691Z" class="g2_23"/>
<path d="M548.2 691h851.9V324.3H548.2V691Z" class="g3_23"/>
<path fill-rule="evenodd" d="M1247.6 385.6h11.9v-4.8h-11.9v4.8Z" class="g4_23"/>
<image clip-path="url(#c1_23)" preserveAspectRatio="none" x="37" y="233" width="378" height="472" href="img/8.jpg"/>
<path fill-rule="evenodd" d="M1339.2 474.6c0-18.2 14.8-32.9 33.1-32.9c18.2 0 32.9 14.7 32.9 32.9c0 18.3-14.7 33.1-32.9 33.1c-18.3 0-33.1-14.8-33.1-33.1Z" class="g5_23"/>
<path d="M1339.2 474.6c0-18.2 14.8-32.9 33.1-32.9c18.2 0 32.9 14.7 32.9 32.9c0 18.3-14.7 33.1-32.9 33.1c-18.3 0-33.1-14.8-33.1-33.1Z" class="g6_23"/>
</svg>