<svg viewBox="0 0 1466 825" version="1.1" xmlns="http://www.w3.org/2000/svg">
<defs>
<clipPath id="c0_15"><path d="M-.2 825.3V-.2H1467V825.3Z"/></clipPath>
<clipPath id="c1_15"><path d="M25.2 696.3V347.6H597.4V696.3Z"/></clipPath>
<style>
.g0_15{fill:#DEEBF7;}
.g1_15{fill:none;stroke:#200CB4;stroke-width:1.145;stroke-linejoin:round;}
.g2_15{fill:none;stroke:#F00;stroke-width:1.145;stroke-linejoin:round;}
.g3_15{fill:#00C;}
.g4_15{fill:none;stroke:#2F528F;stroke-width:1.527;stroke-miterlimit:8;}
</style>
</defs>
<g clip-path="url(#c0_15)">
<image preserveAspectRatio="none" x="-14" y="0" width="1495" height="825" href="img/1.jpg"/>
<image preserveAspectRatio="none" x="399" y="36" width="752" height="94" href="img/2.png"/>
<image preserveAspectRatio="none" x="314" y="36" width="141" height="94" href="img/3.png"/>
</g>
<path fill-rule="evenodd" d="M797.5 249.5h599V179.1h-599v70.4Z" class="g0_15"/>
<path d="M797.5 249.5h599V179.1h-599v70.4Z" class="g1_15"/>
<g clip-path="url(#c0_15)">
<image preserveAspectRatio="none" x="1322" y="169" width="97" height="108" href="img/4.png"/>
<image preserveAspectRatio="none" x="842" y="169" width="544" height="108" href="img/5.png"/>
<image preserveAspectRatio="none" x="812" y="169" width="94" height="108" href="img/6.png"/>
<image preserveAspectRatio="none" x="796" y="169" width="81" height="108" href="img/7.png"/>
</g>
<image clip-path="url(#c1_15)" preserveAspectRatio="none" x="25" y="348" width="572" height="348" href="img/8.jpg"/>
<path d="M24.9 696.5H597.7V347.4H24.9V696.5Z" class="g2_15"/>
<path fill-rule="evenodd" d="M623.3 726.2h785.4V337.5H623.3V726.2Z" class="g0_15"/>
<path d="M623.3 726.2h785.4V337.5H623.3V726.2Z" class="g2_15"/>
<path fill-rule="evenodd" d="M1361.1 695.9c0-18.2 14.7-33 33-33c18.2 0 33 14.8 33 33c0 18.3-14.8 33-33 33c-18.3 0-33-14.7-33-33Z" class="g3_15"/>
<path d="M1361.1 695.9c0-18.2 14.7-33 33-33c18.2 0 33 14.8 33 33c0 18.3-14.8 33-33 33c-18.3 0-33-14.7-33-33Z" class="g4_15"/>
</svg>