<svg viewBox="0 0 1466 825" version="1.1" xmlns="http://www.w3.org/2000/svg">
<defs>
<clipPath id="c0_63"><path d="M-.2 825.3V-.2H1467V825.3Z"/></clipPath>
<clipPath id="c1_63"><path d="M18.2 702.1V320.7H545.4V702.1Z"/></clipPath>
<style>
.g0_63{fill:#DEEBF7;}
.g1_63{fill:none;stroke:#200CB4;stroke-width:1.145;stroke-linejoin:round;}
.g2_63{fill:#ECECEC;}
.g3_63{fill:#FBE5D6;}
.g4_63{fill:none;stroke:#F00;stroke-width:4.583;stroke-linejoin:round;}
.g5_63{fill:#06CFEA;}
.g6_63{fill:none;stroke:#0070C0;stroke-width:4.583;stroke-linejoin:round;}
</style>
</defs>
<g clip-path="url(#c0_63)">
<image preserveAspectRatio="none" x="-14" y="0" width="1495" height="825" href="img/1.jpg"/>
<image preserveAspectRatio="none" x="399" y="36" width="752" height="94" href="img/2.png"/>
<image preserveAspectRatio="none" x="314" y="36" width="141" height="94" href="img/3.png"/>
</g>
<path fill-rule="evenodd" d="M797.5 249.5h599V179.1h-599v70.4Z" class="g0_63"/>
<path d="M797.5 249.5h599V179.1h-599v70.4Z" class="g1_63"/>
<g clip-path="url(#c0_63)">
<image preserveAspectRatio="none" x="1322" y="169" width="97" height="108" href="img/4.png"/>
<image preserveAspectRatio="none" x="842" y="169" width="544" height="108" href="img/5.png"/>
<image preserveAspectRatio="none" x="812" y="169" width="94" height="108" href="img/6.png"/>
<image preserveAspectRatio="none" x="796" y="169" width="81" height="108" href="img/7.png"/>
</g>
<path fill-rule="evenodd" d="M545.1 693.9h848.2V327.4H545.1V693.9Z" class="g2_63"/>
<path d="M545.1 693.9h848.2V327.4H545.1V693.9Z" class="g1_63"/>
<image clip-path="url(#c1_63)" preserveAspectRatio="none" x="19" y="321" width="526" height="381" href="img/8.jpg"/>
<path fill-rule="evenodd" d="M34 292H784.2V177.2H34V292Z" class="g3_63"/>
<path d="M34 292H784.2V177.2H34V292Z" class="g4_63"/>
<path fill-rule="evenodd" d="M844.9 516.9h313.5v-66H844.9v66Z" class="g5_63"/>
<path d="M844.9 516.9h313.5v-66H844.9v66Z" class="g6_63"/>
</svg>