<svg viewBox="0 0 1466 825" version="1.1" xmlns="http://www.w3.org/2000/svg">
<defs>
<clipPath id="c0_61"><path d="M-.2 825.3V-.2H1467V825.3Z"/></clipPath>
<clipPath id="c1_61"><path d="M28.8 687.6V274.3h505V687.6Z"/></clipPath>
<style>
.g0_61{fill:#DEEBF7;}
.g1_61{fill:none;stroke:#200CB4;stroke-width:1.145;stroke-linejoin:round;}
.g2_61{fill:#FBE5D6;}
.g3_61{fill:#00C;}
.g4_61{fill:none;stroke:#2F528F;stroke-width:1.527;stroke-miterlimit:8;}
.g5_61{fill:#06CFEA;}
.g6_61{fill:none;stroke:#F00;stroke-width:4.583;stroke-linejoin:round;}
</style>
</defs>
<g clip-path="url(#c0_61)">
<image preserveAspectRatio="none" x="-14" y="0" width="1495" height="825" href="img/1.jpg"/>
<image preserveAspectRatio="none" x="399" y="36" width="752" height="94" href="img/2.png"/>
<image preserveAspectRatio="none" x="314" y="36" width="141" height="94" href="img/3.png"/>
</g>
<path fill-rule="evenodd" d="M797.5 249.5h599V179.1h-599v70.4Z" class="g0_61"/>
<path d="M797.5 249.5h599V179.1h-599v70.4Z" class="g1_61"/>
<g clip-path="url(#c0_61)">
<image preserveAspectRatio="none" x="1322" y="169" width="97" height="108" href="img/4.png"/>
<image preserveAspectRatio="none" x="842" y="169" width="544" height="108" href="img/5.png"/>
<image preserveAspectRatio="none" x="812" y="169" width="94" height="108" href="img/6.png"/>
<image preserveAspectRatio="none" x="796" y="169" width="81" height="108" href="img/7.png"/>
</g>
<path fill-rule="evenodd" d="M555.5 687.3h837.8V274.6H555.5V687.3Z" class="g2_61"/>
<path d="M555.5 687.3h837.8V274.6H555.5V687.3Z" class="g1_61"/>
<path fill-rule="evenodd" d="M1316 652.3c0-18.2 14.7-33 33-33c18.2 0 33 14.8 33 33c0 18.2-14.8 33-33 33c-18.3 0-33-14.8-33-33Z" class="g3_61"/>
<path d="M1316 652.3c0-18.2 14.7-33 33-33c18.2 0 33 14.8 33 33c0 18.2-14.8 33-33 33c-18.3 0-33-14.8-33-33Z" class="g4_61"/>
<image clip-path="url(#c1_61)" preserveAspectRatio="none" x="29" y="275" width="505" height="412" href="img/8.jpg"/>
<path fill-rule="evenodd" d="M571 344.4H819.2V274H571v70.4Z" class="g5_61"/>
<path d="M571 344.4H819.2V274H571v70.4Z" class="g6_61"/>
<path fill-rule="evenodd" d="M1110.4 413.9h125.7V343.5H1110.4v70.4Z" class="g5_61"/>
<path d="M1110.4 413.9h125.7V343.5H1110.4v70.4Z" class="g6_61"/>
</svg>