<svg viewBox="0 0 1466 825" version="1.1" xmlns="http://www.w3.org/2000/svg">
<defs>
<clipPath id="c0_9"><path d="M-.2 825.3V-.2H1467V825.3Z"/></clipPath>
<clipPath id="c1_9"><path d="M40.6 732.4V278.2H674.3V732.4Z"/></clipPath>
<style>
.g0_9{fill:#DEEBF7;}
.g1_9{fill:none;stroke:#200CB4;stroke-width:1.145;stroke-linejoin:round;}
.g2_9{fill:#E2F0D9;}
.g3_9{fill:none;stroke:#00C;stroke-width:1.145;stroke-linejoin:round;}
.g4_9{fill:none;stroke:#F00;stroke-width:1.145;stroke-linejoin:round;}
.g5_9{fill:#00C;}
.g6_9{fill:none;stroke:#2F528F;stroke-width:1.527;stroke-miterlimit:8;}
</style>
</defs>
<g clip-path="url(#c0_9)">
<image preserveAspectRatio="none" x="-14" y="0" width="1495" height="825" href="img/1.jpg"/>
<image preserveAspectRatio="none" x="399" y="36" width="752" height="94" href="img/2.png"/>
<image preserveAspectRatio="none" x="314" y="36" width="141" height="94" href="img/3.png"/>
</g>
<path fill-rule="evenodd" d="M797.5 249.5h599V179.1h-599v70.4Z" class="g0_9"/>
<path d="M797.5 249.5h599V179.1h-599v70.4Z" class="g1_9"/>
<g clip-path="url(#c0_9)">
<image preserveAspectRatio="none" x="1322" y="169" width="97" height="108" href="img/4.png"/>
<image preserveAspectRatio="none" x="842" y="169" width="544" height="108" href="img/5.png"/>
<image preserveAspectRatio="none" x="812" y="169" width="94" height="108" href="img/6.png"/>
<image preserveAspectRatio="none" x="796" y="169" width="81" height="108" href="img/7.png"/>
</g>
<path fill-rule="evenodd" d="M702.9 732.1h682.5V278.5H702.9V732.1Z" class="g2_9"/>
<path d="M702.9 732.1h682.5V278.5H702.9V732.1Z" class="g3_9"/>
<image clip-path="url(#c1_9)" preserveAspectRatio="none" x="41" y="278" width="633" height="454" href="img/8.jpg"/>
<path d="M40.3 732.6H674.5V277.9H40.3V732.6Z" class="g4_9"/>
<path fill-rule="evenodd" d="M1330.5 699.1c0-18.3 14.7-33 33-33c18.2 0 32.9 14.7 32.9 33c0 18.2-14.7 33-32.9 33c-18.3 0-33-14.8-33-33Z" class="g5_9"/>
<path d="M1330.5 699.1c0-18.3 14.7-33 33-33c18.2 0 32.9 14.7 32.9 33c0 18.2-14.7 33-32.9 33c-18.3 0-33-14.8-33-33Z" class="g6_9"/>
<g clip-path="url(#c0_9)">
<image preserveAspectRatio="none" x="399" y="36" width="752" height="94" href="img/9.png"/>
<image preserveAspectRatio="none" x="314" y="36" width="141" height="94" href="img/10.png"/>
</g>
</svg>