<svg viewBox="0 0 1466 825" version="1.1" xmlns="http://www.w3.org/2000/svg">
<defs>
<clipPath id="c0_18"><path d="M-.2 825.3V-.2H1467V825.3Z"/></clipPath>
<clipPath id="c1_18"><path d="M143 610.3V343.6H1338.7V610.3Z"/></clipPath>
<style>
.g0_18{fill:#DEEBF7;}
.g1_18{fill:none;stroke:#200CB4;stroke-width:1.145;stroke-linejoin:round;}
.g2_18{fill:#FFF2CC;}
.g3_18{fill:#F00;}
.g4_18{fill:#200CB4;}
.g5_18{fill:none;stroke:#2F528F;stroke-width:1.527;stroke-miterlimit:8;}
.g6_18{fill:none;stroke:#F00;stroke-width:1.145;stroke-linejoin:round;}
</style>
</defs>
<g clip-path="url(#c0_18)">
<image preserveAspectRatio="none" x="-14" y="0" width="1495" height="825" href="img/1.jpg"/>
<image preserveAspectRatio="none" x="399" y="36" width="752" height="94" href="img/2.png"/>
<image preserveAspectRatio="none" x="314" y="36" width="141" height="94" href="img/3.png"/>
</g>
<path fill-rule="evenodd" d="M797.5 249.5h599V179.1h-599v70.4Z" class="g0_18"/>
<path d="M797.5 249.5h599V179.1h-599v70.4Z" class="g1_18"/>
<g clip-path="url(#c0_18)">
<image preserveAspectRatio="none" x="1322" y="169" width="97" height="108" href="img/4.png"/>
<image preserveAspectRatio="none" x="842" y="169" width="544" height="108" href="img/5.png"/>
<image preserveAspectRatio="none" x="812" y="169" width="94" height="108" href="img/6.png"/>
<image preserveAspectRatio="none" x="796" y="169" width="81" height="108" href="img/7.png"/>
</g>
<path fill-rule="evenodd" d="M75.2 751.9h1320V266.8H75.2V751.9Z" class="g2_18"/>
<path d="M75.2 751.9h1320V266.8H75.2V751.9Z" class="g1_18"/>
<g clip-path="url(#c0_18)">
<image preserveAspectRatio="none" x="383" y="256" width="150" height="109" href="img/8.png"/>
<image preserveAspectRatio="none" x="412" y="324" width="91" height="10" href="img/9.png"/>
</g>
<path fill-rule="evenodd" d="M413 330h85.8v-5.1H413V330Z" class="g3_18"/>
<path fill-rule="evenodd" d="M1326.2 718.9c0-18.3 14.8-33 33-33c18.3 0 33 14.7 33 33c0 18.2-14.7 33-33 33c-18.2 0-33-14.8-33-33Z" class="g4_18"/>
<path d="M1326.2 718.9c0-18.3 14.8-33 33-33c18.3 0 33 14.7 33 33c0 18.2-14.7 33-33 33c-18.2 0-33-14.8-33-33Z" class="g5_18"/>
<image clip-path="url(#c1_18)" preserveAspectRatio="none" x="143" y="344" width="1195" height="266" href="img/10.jpg"/>
<path d="M142.8 610.5H1338.9V343.4H142.8V610.5Z" class="g6_18"/>
</svg>