<svg viewBox="0 0 1466 825" version="1.1" xmlns="http://www.w3.org/2000/svg">
<defs>
<clipPath id="c0_52"><path d="M-.2 825.3V-.2H1467V825.3Z"/></clipPath>
<style>
.g0_52{fill:#DEEBF7;}
.g1_52{fill:none;stroke:#200CB4;stroke-width:1.145;stroke-linejoin:round;}
.g2_52{fill:#DAE3F3;}
.g3_52{fill:#F00;}
.g4_52{fill:#200CB4;}
.g5_52{fill:none;stroke:#2F528F;stroke-width:1.527;stroke-miterlimit:8;}
</style>
</defs>
<g clip-path="url(#c0_52)">
<image preserveAspectRatio="none" x="-14" y="0" width="1495" height="825" href="img/1.jpg"/>
<image preserveAspectRatio="none" x="399" y="36" width="752" height="94" href="img/2.png"/>
<image preserveAspectRatio="none" x="314" y="36" width="141" height="94" href="img/3.png"/>
</g>
<path fill-rule="evenodd" d="M797.5 249.5h599V179.1h-599v70.4Z" class="g0_52"/>
<path d="M797.5 249.5h599V179.1h-599v70.4Z" class="g1_52"/>
<g clip-path="url(#c0_52)">
<image preserveAspectRatio="none" x="1322" y="169" width="97" height="108" href="img/4.png"/>
<image preserveAspectRatio="none" x="842" y="169" width="544" height="108" href="img/5.png"/>
<image preserveAspectRatio="none" x="812" y="169" width="94" height="108" href="img/6.png"/>
<image preserveAspectRatio="none" x="796" y="169" width="81" height="108" href="img/7.png"/>
</g>
<path fill-rule="evenodd" d="M75.2 676.9h1320V352.7H75.2V676.9Z" class="g2_52"/>
<path d="M75.2 676.9h1320V352.7H75.2V676.9Z" class="g1_52"/>
<path fill-rule="evenodd" d="M624.4 419.1h85.8V414H624.4v5.1Z" class="g3_52"/>
<path fill-rule="evenodd" d="M765.8 559.9c0-18.2 14.8-33 33-33c18.2 0 33 14.8 33 33c0 18.2-14.8 33-33 33c-18.2 0-33-14.8-33-33Z" class="g4_52"/>
<path d="M765.8 559.9c0-18.2 14.8-33 33-33c18.2 0 33 14.8 33 33c0 18.2-14.8 33-33 33c-18.2 0-33-14.8-33-33Z" class="g5_52"/>
</svg>