<svg viewBox="0 0 1466 825" version="1.1" xmlns="http://www.w3.org/2000/svg">
<defs>
<clipPath id="c0_47"><path d="M-.2 825.3V-.2H1467V825.3Z"/></clipPath>
<clipPath id="c1_47"><path d="M28.3 720.3V278.7H608.6V720.3Z"/></clipPath>
<clipPath id="c2_47"><path d="M27.7 720.3V276.7H608.3V720.3Z"/></clipPath>
<style>
.g0_47{fill:#DEEBF7;}
.g1_47{fill:none;stroke:#200CB4;stroke-width:1.145;stroke-linejoin:round;}
.g2_47{fill:#ECECEC;}
.g3_47{fill:#200CB4;}
.g4_47{fill:none;stroke:#2F528F;stroke-width:1.527;stroke-miterlimit:8;}
.g5_47{fill:none;stroke:#00C;stroke-width:1.145;stroke-linejoin:round;}
.g6_47{fill:none;stroke:#F00;stroke-width:1.145;stroke-linejoin:round;}
</style>
</defs>
<g clip-path="url(#c0_47)">
<image preserveAspectRatio="none" x="-14" y="0" width="1495" height="825" href="img/1.jpg"/>
<image preserveAspectRatio="none" x="399" y="36" width="752" height="94" href="img/2.png"/>
<image preserveAspectRatio="none" x="314" y="36" width="141" height="94" href="img/3.png"/>
</g>
<path fill-rule="evenodd" d="M797.5 249.5h599V179.1h-599v70.4Z" class="g0_47"/>
<path d="M797.5 249.5h599V179.1h-599v70.4Z" class="g1_47"/>
<g clip-path="url(#c0_47)">
<image preserveAspectRatio="none" x="1322" y="169" width="97" height="108" href="img/4.png"/>
<image preserveAspectRatio="none" x="842" y="169" width="544" height="108" href="img/5.png"/>
<image preserveAspectRatio="none" x="812" y="169" width="94" height="108" href="img/6.png"/>
<image preserveAspectRatio="none" x="796" y="169" width="81" height="108" href="img/7.png"/>
</g>
<path fill-rule="evenodd" d="M655.1 704.9h740.1V279H655.1V704.9Z" class="g2_47"/>
<path d="M655.1 704.9h740.1V279H655.1V704.9Z" class="g1_47"/>
<path fill-rule="evenodd" d="M1325.7 492.1c0-18.3 14.8-33 33-33c18.2 0 33 14.7 33 33c0 18.2-14.8 33-33 33c-18.2 0-33-14.8-33-33Z" class="g3_47"/>
<path d="M1325.7 492.1c0-18.3 14.8-33 33-33c18.2 0 33 14.7 33 33c0 18.2-14.8 33-33 33c-18.2 0-33-14.8-33-33Z" class="g4_47"/>
<image clip-path="url(#c1_47)" preserveAspectRatio="none" x="29" y="279" width="579" height="441" href="img/8.jpg"/>
<path d="M28 720.5H608.9v-442H28v442Z" class="g5_47"/>
<image clip-path="url(#c2_47)" preserveAspectRatio="none" x="28" y="277" width="580" height="443" href="img/9.jpg"/>
<path d="M27.5 720.5h581V276.4H27.5V720.5Z" class="g6_47"/>
</svg>