<svg viewBox="0 0 1466 825" version="1.1" xmlns="http://www.w3.org/2000/svg">
<defs>
<clipPath id="c0_55"><path d="M-.2 825.3V-.2H1467V825.3Z"/></clipPath>
<clipPath id="c1_55"><path d="M183 622.9V404.7H1283.7V622.9Z"/></clipPath>
<style>
.g0_55{fill:#DEEBF7;}
.g1_55{fill:none;stroke:#200CB4;stroke-width:1.145;stroke-linejoin:round;}
.g2_55{fill:none;stroke:#F00;stroke-width:1.145;stroke-linejoin:round;}
.g3_55{fill:#00C;}
.g4_55{fill:none;stroke:#2F528F;stroke-width:1.527;stroke-miterlimit:8;}
.g5_55{fill:none;stroke:#00C;stroke-width:1.145;stroke-miterlimit:8;}
</style>
</defs>
<g clip-path="url(#c0_55)">
<image preserveAspectRatio="none" x="-14" y="0" width="1495" height="825" href="img/1.jpg"/>
<image preserveAspectRatio="none" x="399" y="36" width="752" height="94" href="img/2.png"/>
<image preserveAspectRatio="none" x="314" y="36" width="141" height="94" href="img/3.png"/>
</g>
<path fill-rule="evenodd" d="M797.5 249.5h599V179.1h-599v70.4Z" class="g0_55"/>
<path d="M797.5 249.5h599V179.1h-599v70.4Z" class="g1_55"/>
<g clip-path="url(#c0_55)">
<image preserveAspectRatio="none" x="1322" y="169" width="97" height="108" href="img/4.png"/>
<image preserveAspectRatio="none" x="842" y="169" width="544" height="108" href="img/5.png"/>
<image preserveAspectRatio="none" x="812" y="169" width="94" height="108" href="img/6.png"/>
<image preserveAspectRatio="none" x="796" y="169" width="81" height="108" href="img/7.png"/>
</g>
<path fill-rule="evenodd" d="M73.3 760.8h1320V275.7H73.3V760.8Z" class="g0_55"/>
<path d="M73.3 760.8h1320V275.7H73.3V760.8Z" class="g2_55"/>
<path fill-rule="evenodd" d="M1332.8 667c0-18.3 14.8-33 33-33c18.3 0 33 14.7 33 33c0 18.2-14.7 33-33 33c-18.2 0-33-14.8-33-33Z" class="g3_55"/>
<path d="M1332.8 667c0-18.3 14.8-33 33-33c18.3 0 33 14.7 33 33c0 18.2-14.7 33-33 33c-18.2 0-33-14.8-33-33Z" class="g4_55"/>
<image clip-path="url(#c1_55)" preserveAspectRatio="none" x="183" y="405" width="1100" height="217" href="img/8.jpg"/>
<path d="M182.8 623.2H1283.9V404.4H182.8V623.2Z" class="g5_55"/>
</svg>