<svg viewBox="0 0 1466 825" version="1.1" xmlns="http://www.w3.org/2000/svg">
<defs>
<clipPath id="c0_66"><path d="M-.2 825.3V-.2H1467V825.3Z"/></clipPath>
<clipPath id="c1_66"><path d="M29.6 750.9V324.5H536.8V750.9Z"/></clipPath>
<style>
.g0_66{fill:#DEEBF7;}
.g1_66{fill:none;stroke:#200CB4;stroke-width:1.145;stroke-linejoin:round;}
.g2_66{fill:#FBE5D6;}
.g3_66{fill:none;stroke:#F00;stroke-width:1.145;stroke-linejoin:round;}
.g4_66{fill:#00C;}
.g5_66{fill:none;stroke:#2F528F;stroke-width:1.527;stroke-miterlimit:8;}
.g6_66{fill:none;stroke:#200CB4;stroke-width:1.145;stroke-linejoin:round;}
</style>
</defs>
<g clip-path="url(#c0_66)">
<image preserveAspectRatio="none" x="-14" y="0" width="1495" height="825" href="img/1.jpg"/>
<image preserveAspectRatio="none" x="399" y="36" width="752" height="94" href="img/2.png"/>
<image preserveAspectRatio="none" x="314" y="36" width="141" height="94" href="img/3.png"/>
</g>
<path fill-rule="evenodd" d="M797.5 249.5h599V179.1h-599v70.4Z" class="g0_66"/>
<path d="M797.5 249.5h599V179.1h-599v70.4Z" class="g1_66"/>
<g clip-path="url(#c0_66)">
<image preserveAspectRatio="none" x="1322" y="169" width="97" height="108" href="img/4.png"/>
<image preserveAspectRatio="none" x="842" y="169" width="544" height="108" href="img/5.png"/>
<image preserveAspectRatio="none" x="812" y="169" width="94" height="108" href="img/6.png"/>
<image preserveAspectRatio="none" x="796" y="169" width="81" height="108" href="img/7.png"/>
</g>
<path fill-rule="evenodd" d="M576.4 750.6h816.9V324.9H576.4V750.6Z" class="g2_66"/>
<path d="M576.4 750.6h816.9V324.9H576.4V750.6Z" class="g1_66"/>
<image clip-path="url(#c1_66)" preserveAspectRatio="none" x="30" y="325" width="506" height="426" href="img/8.jpg"/>
<path d="M29.3 751.1H537V324.3H29.3V751.1Z" class="g3_66"/>
<path fill-rule="evenodd" d="M1320.4 658.4c0-18.3 14.7-33 33-33c18.2 0 33 14.7 33 33c0 18.2-14.8 33-33 33c-18.3 0-33-14.8-33-33Z" class="g4_66"/>
<path d="M1320.4 658.4c0-18.3 14.7-33 33-33c18.2 0 33 14.7 33 33c0 18.2-14.8 33-33 33c-18.3 0-33-14.8-33-33Z" class="g5_66"/>
<path fill-rule="evenodd" d="M903.6 459.8h198V389.4h-198v70.4Z" class="g0_66"/>
<path d="M903.6 459.8h198V389.4h-198v70.4Z" class="g6_66"/>
<image clip-path="url(#c0_66)" preserveAspectRatio="none" x="893" y="379" width="231" height="108" href="img/9.png"/>
</svg>