<svg viewBox="0 0 1466 825" version="1.1" xmlns="http://www.w3.org/2000/svg">
<defs>
<clipPath id="c0_12"><path d="M-.2 825.3V-.2H1467V825.3Z"/></clipPath>
<clipPath id="c1_12"><path d="M27.9 679.8V300.9H563.3V679.8Z"/></clipPath>
<style>
.g0_12{fill:#DEEBF7;}
.g1_12{fill:none;stroke:#200CB4;stroke-width:1.145;stroke-linejoin:round;}
.g2_12{fill:#E2F0D9;}
.g3_12{fill:none;stroke:#F00;stroke-width:1.145;stroke-linejoin:round;}
.g4_12{fill:#F00;}
.g5_12{fill:#00C;}
.g6_12{fill:none;stroke:#2F528F;stroke-width:1.527;stroke-miterlimit:8;}
</style>
</defs>
<g clip-path="url(#c0_12)">
<image preserveAspectRatio="none" x="-14" y="0" width="1495" height="825" href="img/1.jpg"/>
<image preserveAspectRatio="none" x="399" y="36" width="752" height="94" href="img/2.png"/>
<image preserveAspectRatio="none" x="314" y="36" width="141" height="94" href="img/3.png"/>
</g>
<path fill-rule="evenodd" d="M797.5 249.5h599V179.1h-599v70.4Z" class="g0_12"/>
<path d="M797.5 249.5h599V179.1h-599v70.4Z" class="g1_12"/>
<g clip-path="url(#c0_12)">
<image preserveAspectRatio="none" x="1322" y="169" width="97" height="108" href="img/4.png"/>
<image preserveAspectRatio="none" x="842" y="169" width="544" height="108" href="img/5.png"/>
<image preserveAspectRatio="none" x="812" y="169" width="94" height="108" href="img/6.png"/>
<image preserveAspectRatio="none" x="796" y="169" width="81" height="108" href="img/7.png"/>
</g>
<path fill-rule="evenodd" d="M609.6 712.8h728.9V277.7H609.6V712.8Z" class="g2_12"/>
<path d="M609.6 712.8h728.9V277.7H609.6V712.8Z" class="g3_12"/>
<path fill-rule="evenodd" d="M833.3 392.8h209.6v4.8H833.3Z" class="g4_12"/>
<image clip-path="url(#c1_12)" preserveAspectRatio="none" x="28" y="301" width="535" height="378" href="img/8.jpg"/>
<path fill-rule="evenodd" d="M1272.5 557.1c0-18.2 14.8-32.9 33-32.9c18.2 0 33 14.7 33 32.9c0 18.3-14.8 33.1-33 33.1c-18.2 0-33-14.8-33-33.1Z" class="g5_12"/>
<path d="M1272.5 557.1c0-18.2 14.8-32.9 33-32.9c18.2 0 33 14.7 33 32.9c0 18.3-14.8 33.1-33 33.1c-18.2 0-33-14.8-33-33.1Z" class="g6_12"/>
<g clip-path="url(#c0_12)">
<image preserveAspectRatio="none" x="399" y="36" width="752" height="94" href="img/9.png"/>
<image preserveAspectRatio="none" x="314" y="36" width="141" height="94" href="img/10.png"/>
</g>
</svg>