<svg viewBox="0 0 1466 825" version="1.1" xmlns="http://www.w3.org/2000/svg">
<defs>
<clipPath id="c0_102"><path d="M-.2 825.3V-.2H1467V825.3Z"/></clipPath>
<clipPath id="c1_102"><path d="M27.7 690.6V323.3H561.1V690.6Z"/></clipPath>
<style>
.g0_102{fill:#DEEBF7;}
.g1_102{fill:none;stroke:#200CB4;stroke-width:1.145;stroke-linejoin:round;}
.g2_102{fill:#E2F0D9;}
.g3_102{fill:none;stroke:#F00;stroke-width:1.145;stroke-linejoin:round;}
.g4_102{fill:#00C;}
.g5_102{fill:none;stroke:#2F528F;stroke-width:1.527;stroke-miterlimit:8;}
</style>
</defs>
<g clip-path="url(#c0_102)">
<image preserveAspectRatio="none" x="-14" y="0" width="1495" height="825" href="img/1.jpg"/>
<image preserveAspectRatio="none" x="399" y="36" width="752" height="94" href="img/2.png"/>
<image preserveAspectRatio="none" x="314" y="36" width="141" height="94" href="img/3.png"/>
</g>
<path fill-rule="evenodd" d="M797.5 249.5h599V179.1h-599v70.4Z" class="g0_102"/>
<path d="M797.5 249.5h599V179.1h-599v70.4Z" class="g1_102"/>
<g clip-path="url(#c0_102)">
<image preserveAspectRatio="none" x="1322" y="169" width="97" height="108" href="img/4.png"/>
<image preserveAspectRatio="none" x="842" y="169" width="544" height="108" href="img/5.png"/>
<image preserveAspectRatio="none" x="812" y="169" width="94" height="108" href="img/6.png"/>
<image preserveAspectRatio="none" x="796" y="169" width="81" height="108" href="img/7.png"/>
</g>
<path fill-rule="evenodd" d="M594.7 690.3h798.6V323.6H594.7V690.3Z" class="g2_102"/>
<path d="M594.7 690.3h798.6V323.6H594.7V690.3Z" class="g3_102"/>
<image clip-path="url(#c1_102)" preserveAspectRatio="none" x="28" y="324" width="533" height="366" href="img/8.jpg"/>
<path d="M27.5 690.8H561.4V323H27.5V690.8Z" class="g1_102"/>
<path fill-rule="evenodd" d="M1320.4 597.5c0-18.2 14.7-33 33-33c18.2 0 33 14.8 33 33c0 18.2-14.8 33-33 33c-18.3 0-33-14.8-33-33Z" class="g4_102"/>
<path d="M1320.4 597.5c0-18.2 14.7-33 33-33c18.2 0 33 14.8 33 33c0 18.2-14.8 33-33 33c-18.3 0-33-14.8-33-33Z" class="g5_102"/>
</svg>