<svg viewBox="0 0 1466 825" version="1.1" xmlns="http://www.w3.org/2000/svg">
<defs>
<clipPath id="c0_20"><path d="M-.2 825.3V-.2H1467V825.3Z"/></clipPath>
<clipPath id="c1_20"><path d="M156.1 770.9V611.3H1366.7V770.9Z"/></clipPath>
<style>
.g0_20{fill:#DEEBF7;}
.g1_20{fill:none;stroke:#200CB4;stroke-width:1.145;stroke-linejoin:round;}
.g2_20{fill:#E2F0D9;}
.g3_20{fill:none;stroke:#F00;stroke-width:1.145;stroke-linejoin:round;}
.g4_20{fill:#00C;}
.g5_20{fill:none;stroke:#2F528F;stroke-width:1.527;stroke-miterlimit:8;}
.g6_20{fill:#DAE3F3;}
.g7_20{fill:none;stroke:#200CB4;stroke-width:1.145;stroke-linejoin:round;}
</style>
</defs>
<g clip-path="url(#c0_20)">
<image preserveAspectRatio="none" x="-14" y="0" width="1495" height="825" href="img/1.jpg"/>
<image preserveAspectRatio="none" x="399" y="36" width="752" height="94" href="img/2.png"/>
<image preserveAspectRatio="none" x="314" y="36" width="141" height="94" href="img/3.png"/>
</g>
<path fill-rule="evenodd" d="M797.5 249.5h599V179.1h-599v70.4Z" class="g0_20"/>
<path d="M797.5 249.5h599V179.1h-599v70.4Z" class="g1_20"/>
<g clip-path="url(#c0_20)">
<image preserveAspectRatio="none" x="1322" y="169" width="97" height="108" href="img/4.png"/>
<image preserveAspectRatio="none" x="842" y="169" width="544" height="108" href="img/5.png"/>
<image preserveAspectRatio="none" x="812" y="169" width="94" height="108" href="img/6.png"/>
<image preserveAspectRatio="none" x="796" y="169" width="81" height="108" href="img/7.png"/>
</g>
<path fill-rule="evenodd" d="M73.3 588.5h1320V271.9H73.3V588.5Z" class="g2_20"/>
<path d="M73.3 588.5h1320V271.9H73.3V588.5Z" class="g3_20"/>
<path fill-rule="evenodd" d="M674.1 551.1c0-18.2 14.8-33 33-33c18.2 0 33 14.8 33 33c0 18.2-14.8 33-33 33c-18.2 0-33-14.8-33-33Z" class="g4_20"/>
<path d="M674.1 551.1c0-18.2 14.8-33 33-33c18.2 0 33 14.8 33 33c0 18.2-14.8 33-33 33c-18.2 0-33-14.8-33-33Z" class="g5_20"/>
<path fill-rule="evenodd" d="M1018.2 504.3h98.5V433.9h-98.5v70.4Z" class="g6_20"/>
<path d="M1018.2 504.3h98.5V433.9h-98.5v70.4Z" class="g7_20"/>
<path fill-rule="evenodd" d="M912.4 576.2h98.5V505.8H912.4v70.4Z" class="g6_20"/>
<path d="M912.4 576.2h98.5V505.8H912.4v70.4Z" class="g7_20"/>
<path fill-rule="evenodd" d="M251.5 503.1H350V432.9H251.5v70.2Z" class="g6_20"/>
<path d="M251.5 503.1H350V432.9H251.5v70.2Z" class="g7_20"/>
<path fill-rule="evenodd" d="M374.2 577h98.4V506.6H374.2V577Z" class="g6_20"/>
<path d="M374.2 577h98.4V506.6H374.2V577Z" class="g7_20"/>
<image clip-path="url(#c1_20)" preserveAspectRatio="none" x="156" y="612" width="1210" height="159" href="img/8.jpg"/>
</svg>