<svg viewBox="0 0 1466 825" version="1.1" xmlns="http://www.w3.org/2000/svg">
<defs>
<clipPath id="c0_53"><path d="M-.2 825.3V-.2H1467V825.3Z"/></clipPath>
<clipPath id="c1_53"><path d="M73 747.4V576.1H1393.7V747.4Z"/></clipPath>
<clipPath id="c2_53"><path d="M27.7 525.9V280.2H592.3V525.9Z"/></clipPath>
<style>
.g0_53{fill:#DEEBF7;}
.g1_53{fill:none;stroke:#200CB4;stroke-width:1.145;stroke-linejoin:round;}
.g2_53{fill:#DAE3F3;}
.g3_53{fill:none;stroke:#F00;stroke-width:1.145;stroke-linejoin:round;}
.g4_53{fill:none;stroke:#00C;stroke-width:1.145;stroke-linejoin:round;}
.g5_53{fill:none;stroke:#00C;stroke-width:9.166;stroke-miterlimit:8;}
</style>
</defs>
<g clip-path="url(#c0_53)">
<image preserveAspectRatio="none" x="-14" y="0" width="1495" height="825" href="img/1.jpg"/>
<image preserveAspectRatio="none" x="399" y="36" width="752" height="94" href="img/2.png"/>
<image preserveAspectRatio="none" x="314" y="36" width="141" height="94" href="img/3.png"/>
</g>
<path fill-rule="evenodd" d="M797.5 249.5h599V179.1h-599v70.4Z" class="g0_53"/>
<path d="M797.5 249.5h599V179.1h-599v70.4Z" class="g1_53"/>
<g clip-path="url(#c0_53)">
<image preserveAspectRatio="none" x="1322" y="169" width="97" height="108" href="img/4.png"/>
<image preserveAspectRatio="none" x="842" y="169" width="544" height="108" href="img/5.png"/>
<image preserveAspectRatio="none" x="812" y="169" width="94" height="108" href="img/6.png"/>
<image preserveAspectRatio="none" x="796" y="169" width="81" height="108" href="img/7.png"/>
</g>
<path fill-rule="evenodd" d="M637.4 493.7h755.9V286.4H637.4V493.7Z" class="g2_53"/>
<path d="M637.4 493.7h755.9V286.4H637.4V493.7Z" class="g3_53"/>
<image clip-path="url(#c1_53)" preserveAspectRatio="none" x="73" y="576" width="1320" height="171" href="img/8.jpg"/>
<path d="M72.8 747.7H1393.9V575.8H72.8V747.7Z" class="g4_53"/>
<image clip-path="url(#c2_53)" preserveAspectRatio="none" x="28" y="280" width="564" height="246" href="img/9.jpg"/>
<path d="M27.5 526.2H592.6V279.9H27.5V526.2Z" class="g4_53"/>
<path d="M379.7 606.5c0-15.2 12.3-27.5 27.5-27.5H718.8c15.2 0 27.5 12.3 27.5 27.5v110c0 15.2-12.3 27.5-27.5 27.5H407.2c-15.2 0-27.5-12.3-27.5-27.5Z" class="g5_53"/>
</svg>