<svg viewBox="0 0 1466 825" version="1.1" xmlns="http://www.w3.org/2000/svg">
<defs>
<clipPath id="c0_80"><path d="M-.2 825.3V-.2H1467V825.3Z"/></clipPath>
<clipPath id="c1_80"><path d="M19.8 709.1V286.8h459V709.1Z"/></clipPath>
<style>
.g0_80{fill:#DEEBF7;}
.g1_80{fill:none;stroke:#200CB4;stroke-width:1.145;stroke-linejoin:round;}
.g2_80{fill:none;stroke:#00C;stroke-width:1.145;stroke-linejoin:round;}
.g3_80{fill:#F00;}
.g4_80{fill:#00C;}
.g5_80{fill:none;stroke:#2F528F;stroke-width:1.527;stroke-miterlimit:8;}
.g6_80{fill:none;stroke:#000;stroke-width:1.145;stroke-miterlimit:8;}
</style>
</defs>
<g clip-path="url(#c0_80)">
<image preserveAspectRatio="none" x="-14" y="0" width="1495" height="825" href="img/1.jpg"/>
<image preserveAspectRatio="none" x="399" y="36" width="752" height="94" href="img/2.png"/>
<image preserveAspectRatio="none" x="314" y="36" width="141" height="94" href="img/3.png"/>
</g>
<path fill-rule="evenodd" d="M797.5 249.5h599V179.1h-599v70.4Z" class="g0_80"/>
<path d="M797.5 249.5h599V179.1h-599v70.4Z" class="g1_80"/>
<g clip-path="url(#c0_80)">
<image preserveAspectRatio="none" x="1322" y="169" width="97" height="108" href="img/4.png"/>
<image preserveAspectRatio="none" x="842" y="169" width="544" height="108" href="img/5.png"/>
<image preserveAspectRatio="none" x="812" y="169" width="94" height="108" href="img/6.png"/>
<image preserveAspectRatio="none" x="796" y="169" width="81" height="108" href="img/7.png"/>
</g>
<path fill-rule="evenodd" d="M478.5 708.8h914.8V283.1H478.5V708.8Z" class="g0_80"/>
<path d="M478.5 708.8h914.8V283.1H478.5V708.8Z" class="g2_80"/>
<g clip-path="url(#c0_80)">
<image preserveAspectRatio="none" x="1034" y="331" width="88" height="109" href="img/8.png"/>
<image preserveAspectRatio="none" x="1064" y="399" width="29" height="10" href="img/9.png"/>
</g>
<path fill-rule="evenodd" d="M1064.6 405h23.9v-5.1h-23.9V405Z" class="g3_80"/>
<path fill-rule="evenodd" d="M1318.3 554.6c0-18.2 14.8-33 33.1-33c18.2 0 33 14.8 33 33c0 18.2-14.8 33-33 33c-18.3 0-33.1-14.8-33.1-33Z" class="g4_80"/>
<path d="M1318.3 554.6c0-18.2 14.8-33 33.1-33c18.2 0 33 14.8 33 33c0 18.2-14.8 33-33 33c-18.3 0-33.1-14.8-33.1-33Z" class="g5_80"/>
<image clip-path="url(#c1_80)" preserveAspectRatio="none" x="20" y="287" width="459" height="422" href="img/10.jpg"/>
<path d="M19.6 709.3H479.1V286.5H19.6V709.3Z" class="g6_80"/>
</svg>