<svg viewBox="0 0 1466 825" version="1.1" xmlns="http://www.w3.org/2000/svg">
<defs>
<clipPath id="c0_56"><path d="M-.2 825.3V-.2H1467V825.3Z"/></clipPath>
<clipPath id="c1_56"><path d="M18.7 780.8V219.1H649.9V780.8Z"/></clipPath>
<style>
.g0_56{fill:#DEEBF7;}
.g1_56{fill:none;stroke:#200CB4;stroke-width:1.145;stroke-linejoin:round;}
.g2_56{fill:none;stroke:#F00;stroke-width:1.145;stroke-linejoin:round;}
.g3_56{fill:#00C;}
.g4_56{fill:none;stroke:#2F528F;stroke-width:1.527;stroke-miterlimit:8;}
</style>
</defs>
<g clip-path="url(#c0_56)">
<image preserveAspectRatio="none" x="-14" y="0" width="1495" height="825" href="img/1.jpg"/>
<image preserveAspectRatio="none" x="399" y="36" width="752" height="94" href="img/2.png"/>
<image preserveAspectRatio="none" x="314" y="36" width="141" height="94" href="img/3.png"/>
</g>
<path fill-rule="evenodd" d="M797.5 249.5h599V179.1h-599v70.4Z" class="g0_56"/>
<path d="M797.5 249.5h599V179.1h-599v70.4Z" class="g1_56"/>
<g clip-path="url(#c0_56)">
<image preserveAspectRatio="none" x="1322" y="169" width="97" height="108" href="img/4.png"/>
<image preserveAspectRatio="none" x="842" y="169" width="544" height="108" href="img/5.png"/>
<image preserveAspectRatio="none" x="812" y="169" width="94" height="108" href="img/6.png"/>
<image preserveAspectRatio="none" x="796" y="169" width="81" height="108" href="img/7.png"/>
</g>
<path d="M673 712.8h726.4V287.1H673V712.8Z" class="g2_56"/>
<image clip-path="url(#c1_56)" preserveAspectRatio="none" x="19" y="219" width="631" height="561" href="img/8.jpg"/>
<path fill-rule="evenodd" d="M1333.4 611.4c0-18.2 14.8-33 33-33c18.2 0 33 14.8 33 33c0 18.2-14.8 33-33 33c-18.2 0-33-14.8-33-33Z" class="g3_56"/>
<path d="M1333.4 611.4c0-18.2 14.8-33 33-33c18.2 0 33 14.8 33 33c0 18.2-14.8 33-33 33c-18.2 0-33-14.8-33-33Z" class="g4_56"/>
</svg>