<svg viewBox="0 0 1466 825" version="1.1" xmlns="http://www.w3.org/2000/svg">
<defs>
<clipPath id="c0_54"><path d="M-.2 825.3V-.2H1467V825.3Z"/></clipPath>
<style>
.g0_54{fill:#DEEBF7;}
.g1_54{fill:none;stroke:#200CB4;stroke-width:1.145;stroke-linejoin:round;}
.g2_54{fill:#E2F0D9;}
.g3_54{fill:none;stroke:#F00;stroke-width:1.145;stroke-linejoin:round;}
.g4_54{fill:#F00;}
.g5_54{fill:#00C;}
.g6_54{fill:none;stroke:#2F528F;stroke-width:1.527;stroke-miterlimit:8;}
</style>
</defs>
<g clip-path="url(#c0_54)">
<image preserveAspectRatio="none" x="-14" y="0" width="1495" height="825" href="img/1.jpg"/>
<image preserveAspectRatio="none" x="399" y="36" width="752" height="94" href="img/2.png"/>
<image preserveAspectRatio="none" x="314" y="36" width="141" height="94" href="img/3.png"/>
</g>
<path fill-rule="evenodd" d="M797.5 249.5h599V179.1h-599v70.4Z" class="g0_54"/>
<path d="M797.5 249.5h599V179.1h-599v70.4Z" class="g1_54"/>
<g clip-path="url(#c0_54)">
<image preserveAspectRatio="none" x="1322" y="169" width="97" height="108" href="img/4.png"/>
<image preserveAspectRatio="none" x="842" y="169" width="544" height="108" href="img/5.png"/>
<image preserveAspectRatio="none" x="812" y="169" width="94" height="108" href="img/6.png"/>
<image preserveAspectRatio="none" x="796" y="169" width="81" height="108" href="img/7.png"/>
</g>
<path fill-rule="evenodd" d="M73.3 668.8h1320V302.3H73.3V668.8Z" class="g2_54"/>
<path d="M73.3 668.8h1320V302.3H73.3V668.8Z" class="g3_54"/>
<g clip-path="url(#c0_54)">
<image preserveAspectRatio="none" x="1140" y="291" width="88" height="108" href="img/8.png"/>
<image preserveAspectRatio="none" x="1169" y="358" width="29" height="11" href="img/9.png"/>
</g>
<path fill-rule="evenodd" d="M1170.2 364.3h23.9v-5.2h-23.9v5.2Z" class="g4_54"/>
<image clip-path="url(#c0_54)" preserveAspectRatio="none" x="1025" y="291" width="165" height="108" href="img/10.png"/>
<path fill-rule="evenodd" d="M1318.5 581.9c0-18.2 14.8-33 33-33c18.3 0 33 14.8 33 33c0 18.2-14.7 33-33 33c-18.2 0-33-14.8-33-33Z" class="g5_54"/>
<path d="M1318.5 581.9c0-18.2 14.8-33 33-33c18.3 0 33 14.8 33 33c0 18.2-14.7 33-33 33c-18.2 0-33-14.8-33-33Z" class="g6_54"/>
</svg>