<svg viewBox="0 0 1466 825" version="1.1" xmlns="http://www.w3.org/2000/svg">
<defs>
<clipPath id="c0_11"><path d="M-.2 825.3V-.2H1467V825.3Z"/></clipPath>
<style>
.g0_11{fill:#DEEBF7;}
.g1_11{fill:none;stroke:#200CB4;stroke-width:1.145;stroke-linejoin:round;}
.g2_11{fill:#C5E0B4;}
.g3_11{fill:none;stroke:#F00;stroke-width:1.145;stroke-linejoin:round;}
.g4_11{fill:#00C;}
.g5_11{fill:none;stroke:#2F528F;stroke-width:1.527;stroke-miterlimit:8;}
.g6_11{fill:none;stroke:#00C;stroke-width:1.145;stroke-linejoin:round;}
</style>
</defs>
<g clip-path="url(#c0_11)">
<image preserveAspectRatio="none" x="-14" y="0" width="1495" height="825" href="img/1.jpg"/>
<image preserveAspectRatio="none" x="399" y="36" width="752" height="94" href="img/2.png"/>
<image preserveAspectRatio="none" x="314" y="36" width="141" height="94" href="img/3.png"/>
</g>
<path fill-rule="evenodd" d="M797.5 249.5h599V179.1h-599v70.4Z" class="g0_11"/>
<path d="M797.5 249.5h599V179.1h-599v70.4Z" class="g1_11"/>
<g clip-path="url(#c0_11)">
<image preserveAspectRatio="none" x="1322" y="169" width="97" height="108" href="img/4.png"/>
<image preserveAspectRatio="none" x="842" y="169" width="544" height="108" href="img/5.png"/>
<image preserveAspectRatio="none" x="812" y="169" width="94" height="108" href="img/6.png"/>
<image preserveAspectRatio="none" x="796" y="169" width="81" height="108" href="img/7.png"/>
</g>
<path fill-rule="evenodd" d="M75.2 713h1320V357.3H75.2V713Z" class="g2_11"/>
<path d="M75.2 713h1320V357.3H75.2V713Z" class="g3_11"/>
<path fill-rule="evenodd" d="M1330.5 680c0-18.2 14.7-33 33-33c18.2 0 32.9 14.8 32.9 33c0 18.2-14.7 33-32.9 33c-18.3 0-33-14.8-33-33Z" class="g4_11"/>
<path d="M1330.5 680c0-18.2 14.7-33 33-33c18.2 0 32.9 14.8 32.9 33c0 18.2-14.7 33-32.9 33c-18.3 0-33-14.8-33-33Z" class="g5_11"/>
<path fill-rule="evenodd" d="M1142.7 489.5h108.6V419.1H1142.7v70.4Z" class="g0_11"/>
<path d="M1142.7 489.5h108.6V419.1H1142.7v70.4Z" class="g6_11"/>
<g clip-path="url(#c0_11)">
<image preserveAspectRatio="none" x="399" y="36" width="752" height="94" href="img/8.png"/>
<image preserveAspectRatio="none" x="314" y="36" width="141" height="94" href="img/9.png"/>
</g>
</svg>