<svg viewBox="0 0 1466 825" version="1.1" xmlns="http://www.w3.org/2000/svg">
<defs>
<clipPath id="c0_31"><path d="M-.2 825.3V-.2H1467V825.3Z"/></clipPath>
<clipPath id="c1_31"><path d="M29.4 700.7V274.3H555.8V700.7Z"/></clipPath>
<style>
.g0_31{fill:#DEEBF7;}
.g1_31{fill:none;stroke:#200CB4;stroke-width:1.145;stroke-linejoin:round;}
.g2_31{fill:#E2F0D9;}
.g3_31{fill:#00C;}
.g4_31{fill:none;stroke:#2F528F;stroke-width:1.527;stroke-miterlimit:8;}
.g5_31{fill:none;stroke:#200CB4;stroke-width:1.145;stroke-linejoin:round;}
</style>
</defs>
<g clip-path="url(#c0_31)">
<image preserveAspectRatio="none" x="-14" y="0" width="1495" height="825" href="img/1.jpg"/>
<image preserveAspectRatio="none" x="399" y="36" width="752" height="94" href="img/2.png"/>
<image preserveAspectRatio="none" x="314" y="36" width="141" height="94" href="img/3.png"/>
</g>
<path fill-rule="evenodd" d="M797.5 249.5h599V179.1h-599v70.4Z" class="g0_31"/>
<path d="M797.5 249.5h599V179.1h-599v70.4Z" class="g1_31"/>
<g clip-path="url(#c0_31)">
<image preserveAspectRatio="none" x="1322" y="169" width="97" height="108" href="img/4.png"/>
<image preserveAspectRatio="none" x="842" y="169" width="544" height="108" href="img/5.png"/>
<image preserveAspectRatio="none" x="812" y="169" width="94" height="108" href="img/6.png"/>
<image preserveAspectRatio="none" x="796" y="169" width="81" height="108" href="img/7.png"/>
</g>
<path fill-rule="evenodd" d="M591.3 700.3h802V274.6h-802V700.3Z" class="g2_31"/>
<path d="M591.3 700.3h802V274.6h-802V700.3Z" class="g1_31"/>
<path fill-rule="evenodd" d="M1315.8 608.5c0-18.2 14.8-33 33-33c18.2 0 33 14.8 33 33c0 18.2-14.8 33-33 33c-18.2 0-33-14.8-33-33Z" class="g3_31"/>
<path d="M1315.8 608.5c0-18.2 14.8-33 33-33c18.2 0 33 14.8 33 33c0 18.2-14.8 33-33 33c-18.2 0-33-14.8-33-33Z" class="g4_31"/>
<image clip-path="url(#c1_31)" preserveAspectRatio="none" x="30" y="275" width="525" height="425" href="img/8.jpg"/>
<path d="M29.1 700.9h527V274.1H29.1V700.9Z" class="g5_31"/>
</svg>