<svg viewBox="0 0 1466 825" version="1.1" xmlns="http://www.w3.org/2000/svg">
<defs>
<clipPath id="c0_93"><path d="M-.2 825.3V-.2H1467V825.3Z"/></clipPath>
<clipPath id="c1_93"><path d="M27.7 709.1V282.7H603.3V709.1Z"/></clipPath>
<style>
.g0_93{fill:#DEEBF7;}
.g1_93{fill:none;stroke:#200CB4;stroke-width:1.145;stroke-linejoin:round;}
.g2_93{fill:none;stroke:#00C;stroke-width:1.145;stroke-linejoin:round;}
.g3_93{fill:#00C;}
.g4_93{fill:none;stroke:#2F528F;stroke-width:1.527;stroke-miterlimit:8;}
.g5_93{fill:none;stroke:#F00;stroke-width:1.145;stroke-linejoin:round;}
</style>
</defs>
<g clip-path="url(#c0_93)">
<image preserveAspectRatio="none" x="-14" y="0" width="1495" height="825" href="img/1.jpg"/>
<image preserveAspectRatio="none" x="399" y="36" width="752" height="94" href="img/2.png"/>
<image preserveAspectRatio="none" x="314" y="36" width="141" height="94" href="img/3.png"/>
</g>
<path fill-rule="evenodd" d="M797.5 249.5h599V179.1h-599v70.4Z" class="g0_93"/>
<path d="M797.5 249.5h599V179.1h-599v70.4Z" class="g1_93"/>
<g clip-path="url(#c0_93)">
<image preserveAspectRatio="none" x="1322" y="169" width="97" height="108" href="img/4.png"/>
<image preserveAspectRatio="none" x="842" y="169" width="544" height="108" href="img/5.png"/>
<image preserveAspectRatio="none" x="812" y="169" width="94" height="108" href="img/6.png"/>
<image preserveAspectRatio="none" x="796" y="169" width="81" height="108" href="img/7.png"/>
</g>
<path fill-rule="evenodd" d="M616.6 708.8h776.7V283.1H616.6V708.8Z" class="g0_93"/>
<path d="M616.6 708.8h776.7V283.1H616.6V708.8Z" class="g2_93"/>
<path fill-rule="evenodd" d="M1313.8 559.2c0-18.3 14.7-33 33-33c18.2 0 33 14.7 33 33c0 18.2-14.8 33-33 33c-18.3 0-33-14.8-33-33Z" class="g3_93"/>
<path d="M1313.8 559.2c0-18.3 14.7-33 33-33c18.2 0 33 14.7 33 33c0 18.2-14.8 33-33 33c-18.3 0-33-14.8-33-33Z" class="g4_93"/>
<image clip-path="url(#c1_93)" preserveAspectRatio="none" x="28" y="283" width="575" height="426" href="img/8.jpg"/>
<path d="M27.5 709.3H603.6V282.5H27.5V709.3Z" class="g5_93"/>
</svg>