<svg viewBox="0 0 1466 825" version="1.1" xmlns="http://www.w3.org/2000/svg">
<defs>
<clipPath id="c0_72"><path d="M-.2 825.3V-.2H1467V825.3Z"/></clipPath>
<style>
.g0_72{fill:#DEEBF7;}
.g1_72{fill:none;stroke:#200CB4;stroke-width:1.145;stroke-linejoin:round;}
.g2_72{fill:#FBE5D6;}
.g3_72{fill:none;stroke:#00C;stroke-width:1.145;stroke-linejoin:round;}
.g4_72{fill:#00C;}
.g5_72{fill:none;stroke:#2F528F;stroke-width:1.527;stroke-miterlimit:8;}
</style>
</defs>
<g clip-path="url(#c0_72)">
<image preserveAspectRatio="none" x="-14" y="0" width="1495" height="825" href="img/1.jpg"/>
<image preserveAspectRatio="none" x="399" y="36" width="752" height="94" href="img/2.png"/>
<image preserveAspectRatio="none" x="314" y="36" width="141" height="94" href="img/3.png"/>
</g>
<path fill-rule="evenodd" d="M797.5 249.5h599V179.1h-599v70.4Z" class="g0_72"/>
<path d="M797.5 249.5h599V179.1h-599v70.4Z" class="g1_72"/>
<g clip-path="url(#c0_72)">
<image preserveAspectRatio="none" x="1322" y="169" width="97" height="108" href="img/4.png"/>
<image preserveAspectRatio="none" x="842" y="169" width="544" height="108" href="img/5.png"/>
<image preserveAspectRatio="none" x="812" y="169" width="94" height="108" href="img/6.png"/>
<image preserveAspectRatio="none" x="796" y="169" width="81" height="108" href="img/7.png"/>
</g>
<path fill-rule="evenodd" d="M73.3 658.5h1320V283.1H73.3V658.5Z" class="g2_72"/>
<path d="M73.3 658.5h1320V283.1H73.3V658.5Z" class="g3_72"/>
<path fill-rule="evenodd" d="M1312.9 503.8c0-18.2 14.7-33 32.9-33c18.3 0 33.1 14.8 33.1 33c0 18.2-14.8 33-33.1 33c-18.2 0-32.9-14.8-32.9-33Z" class="g4_72"/>
<path d="M1312.9 503.8c0-18.2 14.7-33 32.9-33c18.3 0 33.1 14.8 33.1 33c0 18.2-14.8 33-33.1 33c-18.2 0-32.9-14.8-32.9-33Z" class="g5_72"/>
</svg>